<?xml version="1.0" encoding="UTF-8"?>
<svg version="1.1" xmlns="http://www.w3.org/2000/svg" width="245" height="226">
<path d="M0 0 C80.85 0 161.7 0 245 0 C245 74.58 245 149.16 245 226 C164.15 226 83.3 226 0 226 C0 151.42 0 76.84 0 0 Z " fill="#F7F7F7" transform="translate(0,0)"/>
<path d="M0 0 C1.04970474 -0.00350464 2.09940948 -0.00700928 3.18092346 -0.01062012 C6.63842453 -0.01939626 10.09571963 -0.01360186 13.55322266 -0.00683594 C15.96546467 -0.00818397 18.37770642 -0.01012566 20.78994751 -0.01263428 C25.84192495 -0.01558014 30.89383158 -0.01130586 35.94580078 -0.00195312 C42.4073521 0.00942875 48.86873702 0.00288643 55.33028221 -0.00909805 C60.31124107 -0.01634156 65.29216081 -0.01401706 70.27312088 -0.00884247 C72.65485275 -0.00751223 75.03658822 -0.00913168 77.41831589 -0.01380157 C80.75423269 -0.01890636 84.0898841 -0.01110047 87.42578125 0 C88.8895948 -0.00607269 88.8895948 -0.00607269 90.38298035 -0.01226807 C103.56315486 0.06857994 115.78034248 3.98197361 125.52978516 13.22363281 C134.72366094 23.54692868 137.81023953 34.69672138 137.74633789 48.29125977 C137.75320114 49.33351715 137.76006439 50.37577454 137.76713562 51.44961548 C137.78528922 54.86140959 137.7815818 58.27273872 137.77587891 61.68457031 C137.7804467 64.07911832 137.78575404 66.47366502 137.79176331 68.86820984 C137.80067242 73.87532899 137.79829689 78.88228846 137.78833008 83.8894043 C137.77685308 90.27427111 137.79704446 96.6585838 137.82624722 103.04337788 C137.84468366 107.98595118 137.84430176 112.92839357 137.8386097 117.87099266 C137.83845734 120.22347986 137.84442993 122.57597641 137.85690117 124.92843056 C137.93640669 142.38461657 137.7857549 157.65478846 125.34228516 171.25878906 C117.42157545 179.04814372 107.69410538 183.97701375 96.44775391 184.35644531 C95.48482422 184.34484375 94.52189453 184.33324219 93.52978516 184.32128906 C92.55396484 184.31226563 91.57814453 184.30324219 90.57275391 184.29394531 C89.46867187 184.27654297 89.46867187 184.27654297 88.34228516 184.25878906 C88.34228516 180.95878906 88.34228516 177.65878906 88.34228516 174.25878906 C87.10319901 174.26878181 87.10319901 174.26878181 85.83908081 174.27897644 C78.04142498 174.33917176 70.24384757 174.38480621 62.4460125 174.41422558 C58.43737727 174.42985903 54.42893459 174.45105455 50.42041016 174.48510742 C46.54950196 174.51778418 42.67877858 174.53565953 38.80774307 174.54342079 C37.33339658 174.54894943 35.85905981 174.55974558 34.38479233 174.57597923 C32.31425129 174.59786494 30.24446684 174.60075147 28.17382812 174.59936523 C26.40844193 174.60935799 26.40844193 174.60935799 24.60739136 174.61955261 C20.20958865 174.13363674 16.92917751 172.57207929 13.52978516 169.75878906 C10.74929008 166.24658475 10.95095476 162.04433534 10.99462891 157.77050781 C11.57323153 153.59026639 13.2081508 152.04468627 16.34228516 149.25878906 C21.11599836 146.61324012 26.08247698 146.94506262 31.39306641 146.91503906 C32.3658403 146.90041626 33.3386142 146.88579346 34.34086609 146.87072754 C37.44546418 146.82432457 40.55000026 146.79008487 43.65478516 146.75878906 C47.734442 146.71745515 51.81366366 146.66368052 55.89306641 146.60253906 C57.28408318 146.59462341 57.28408318 146.59462341 58.70320129 146.58654785 C71.41281857 146.39372676 81.99636964 142.25421478 91.30712891 133.48535156 C102.3226722 121.43379748 105.0644066 106.02928964 104.46972656 90.23925781 C103.80434191 79.89902738 99.15770816 71.20780526 94.34228516 62.25878906 C93.88337891 61.34097656 93.42447266 60.42316406 92.95166016 59.47753906 C92.54431641 58.68347656 92.13697266 57.88941406 91.71728516 57.07128906 C91.20294922 56.06001953 91.20294922 56.06001953 90.67822266 55.02832031 C88.89062991 52.66054395 86.94426593 51.6773831 84.34228516 50.25878906 C83.29814453 49.63101563 82.25400391 49.00324219 81.17822266 48.35644531 C69.4684241 41.4176806 59.00510919 37.77466443 45.34228516 36.25878906 C45.34228516 39.55878906 45.34228516 42.85878906 45.34228516 46.25878906 C31.15228516 46.25878906 16.96228516 46.25878906 2.34228516 46.25878906 C2.34228516 53.51878906 2.34228516 60.77878906 2.34228516 68.25878906 C4.19837402 68.23260498 6.05446289 68.2064209 7.96679688 68.17944336 C14.13334554 68.09847011 20.29976742 68.04120934 26.46670341 67.9997282 C30.20190285 67.97375175 33.93652146 67.93857737 37.67138672 67.8815918 C41.28299707 67.82683836 44.89405259 67.7972789 48.5060463 67.78440285 C49.87666674 67.77523975 51.24726047 67.75734801 52.61764145 67.73013878 C62.87504304 67.5347733 70.21324924 68.92760317 78.15478516 75.63378906 C85.52915023 84.48302716 87.32367658 90.49591433 86.34228516 102.25878906 C84.53467824 109.1483537 80.39102036 115.73121054 74.28369141 119.54394531 C69.87489008 121.80092801 65.93894763 123.37487427 60.93774414 123.41650391 C59.60506752 123.43189713 59.60506752 123.43189713 58.24546814 123.44760132 C57.28612869 123.45490265 56.32678925 123.46220398 55.33837891 123.46972656 C53.29735553 123.49781437 51.25634002 123.52647894 49.21533203 123.55566406 C46.00529361 123.59676508 42.79539906 123.63366019 39.58520508 123.66015625 C36.48178834 123.68797883 33.37903496 123.73386894 30.27587891 123.78222656 C28.85812416 123.78710587 28.85812416 123.78710587 27.41172791 123.79208374 C16.25738143 123.99503248 5.21285258 127.20062832 -2.73583984 135.40332031 C-10.41882477 144.87792567 -12.87708896 155.11515918 -11.65771484 167.25878906 C-9.93792106 173.38054205 -6.94855292 178.85241223 -3.65771484 184.25878906 C-13.46915347 185.22069481 -22.37101784 181.35302795 -30.09521484 175.44628906 C-37.05356875 169.42398601 -41.4149979 162.83724935 -44.65771484 154.25878906 C-44.99944733 153.44407135 -45.34117981 152.62935364 -45.69326782 151.78994751 C-47.00629884 146.98250814 -46.95270905 142.44890703 -46.94824219 137.48681641 C-46.95495941 136.41281586 -46.96167664 135.33881531 -46.96859741 134.23226929 C-46.98757295 130.68637443 -46.99150185 127.14066902 -46.99365234 123.59472656 C-47.00008209 121.12098107 -47.00681058 118.64723634 -47.01382446 116.17349243 C-47.02579722 110.98690021 -47.02950543 105.80037459 -47.02832031 100.61376953 C-47.02811748 93.98981969 -47.05538349 87.36630058 -47.08986473 80.74245262 C-47.11218175 75.63097195 -47.11615632 70.519594 -47.11510086 65.40806961 C-47.11745097 62.96739853 -47.12624095 60.52672437 -47.14176559 58.08610153 C-47.16151585 54.65947749 -47.15555075 51.23376993 -47.14355469 47.80712891 C-47.1547937 46.81241577 -47.16603271 45.81770264 -47.1776123 44.79284668 C-47.06923622 32.51720598 -42.78734306 22.38123913 -34.65771484 13.25878906 C-24.4692466 3.69265308 -13.77117324 -0.05689427 0 0 Z " fill="#122747" transform="translate(77.65771484375,21.7412109375)"/>
<path d="M0 0 C12.52710406 -0.84929519 23.17927435 4.1664803 34 10 C34.86109375 10.43570313 35.7221875 10.87140625 36.609375 11.3203125 C43.36222868 14.82914824 46.63043978 18.8338415 49.86328125 25.64453125 C50.69596712 27.36999372 51.57528648 29.07315974 52.48046875 30.76171875 C60.21346433 45.36848819 62.72432909 61.05485795 58.03515625 77.12890625 C53.01853611 91.04292814 45.28280054 101.1283385 32.0859375 107.99609375 C25.16978726 111.17996027 18.23523842 111.15270071 10.78125 111.2109375 C8.77733541 111.23899363 6.77342925 111.267658 4.76953125 111.296875 C1.62939583 111.33817316 -1.51057974 111.37508853 -4.65087891 111.40136719 C-7.69466053 111.4290076 -10.73774005 111.47486016 -13.78125 111.5234375 C-14.71578003 111.52669037 -15.65031006 111.52994324 -16.61315918 111.53329468 C-22.69820446 111.64770399 -27.38017201 112.34148256 -31.8515625 116.87890625 C-33.94357841 120.74273156 -33.4985597 124.73454483 -33 129 C-31.63046434 132.57600978 -30.59112316 133.64801708 -27.30978394 135.60188293 C-23.66453899 137.14170525 -21.11072779 137.39518181 -17.16845703 137.43237305 C-16.18690895 137.44766052 -16.18690895 137.44766052 -15.18553162 137.46325684 C-13.04286966 137.49322447 -10.9006559 137.50262724 -8.7578125 137.51171875 C-7.26421644 137.5285776 -5.77063447 137.54672946 -4.27706909 137.56611633 C-0.36121014 137.61349201 3.55459169 137.64338139 7.47064209 137.66955566 C11.47273027 137.69942427 15.4746219 137.74593284 19.4765625 137.79101562 C27.31762777 137.87690729 35.15867306 137.94277558 43 138 C43 145.26 43 152.52 43 160 C33.6892541 160.11346904 24.37897582 160.20498336 15.0676918 160.25906086 C10.74294361 160.28503013 6.41869757 160.32019242 2.09423828 160.37719727 C-2.08795272 160.43197465 -6.26966421 160.46151552 -10.45218658 160.47438622 C-12.03884671 160.48354491 -13.62548394 160.50142738 -15.21193695 160.52865028 C-27.03479109 160.72324906 -37.38227787 159.59475254 -46.4375 151.1875 C-53.97307346 142.85459407 -58.59642947 134.17837531 -58.21875 122.80078125 C-57.57991907 114.62146378 -55.90780515 108.62984205 -51 102 C-49.9171875 100.453125 -49.9171875 100.453125 -48.8125 98.875 C-42.60169676 91.75198503 -32.65218009 87.69957554 -23.39396667 86.72593689 C-20.68471118 86.62746143 -17.98828925 86.61088407 -15.27734375 86.62890625 C-13.25455552 86.61153284 -11.2317691 86.59394837 -9.20898438 86.57617188 C-6.06694284 86.56609887 -2.92501603 86.56250676 0.21704102 86.56420898 C3.28174978 86.56062173 6.34560137 86.53323071 9.41015625 86.50390625 C10.33852798 86.51208878 11.26689972 86.5202713 12.22340393 86.52870178 C19.81156039 86.44294556 25.33402816 84.24957363 31.75 80.3125 C38.54759053 73.32608751 40.30279164 65.69565884 40.21875 56.23046875 C39.93265727 52.00549224 39.09500427 49.66625747 37 46 C36.443125 44.96875 35.88625 43.9375 35.3125 42.875 C31.32565769 37.91838524 25.97145719 35.05656036 20 33 C16.9506822 32.67570108 16.9506822 32.67570108 13.64916992 32.68115234 C12.3882402 32.66128265 11.12731049 32.64141296 9.82817078 32.62094116 C8.46227188 32.60906663 7.09637113 32.59740367 5.73046875 32.5859375 C4.32512793 32.56721549 2.91979822 32.54764131 1.51448059 32.5272522 C-2.17285594 32.47603383 -5.86022887 32.43635334 -9.54772949 32.39910889 C-13.31511362 32.35900441 -17.08234766 32.30794156 -20.84960938 32.2578125 C-28.23297752 32.16117515 -35.61640433 32.07774535 -43 32 C-43 24.74 -43 17.48 -43 10 C-28.81 10 -14.62 10 0 10 C0 6.7 0 3.4 0 0 Z " fill="#FC944D" transform="translate(123,58)"/>
<path d="M0 0 C3.62342508 1.6470114 6.16816086 3.4327343 8 7 C8.83931263 13.5046729 8.83931263 13.5046729 6.98046875 16.81640625 C3.86971059 20.71660153 1.58831411 21.82019086 -3.3125 22.375 C-8.20301701 21.87765929 -9.57084492 20.42915508 -13 17 C-14.61429923 13.77140153 -14.59570657 10.49006347 -14 7 C-10.47547774 0.85838845 -6.87571247 -0.46615 0 0 Z " fill="#82EBDD" transform="translate(162,71)"/>
</svg>
